<?xml version="1.0" encoding="UTF-8"?>
<svg xmlns="http://www.w3.org/2000/svg" class="common-ui__logo common-ui__logo-token-PAL" fill="none" viewBox="0 0 512 512"><script xmlns=""/><script xmlns="" id="argent-x-extension" data-extension-id="{51e0c76c-7dbc-41ba-a45d-c579be84301b}"/>
  <g clip-path="url(#a)">
    <path d="M512 0H0v512h512V0Z" fill="url(#b)"/>
    <path d="M370 150c-7-16-20-28-34-37s-29-15-45-19a227 227 0 0 0-123 0c-20 6-38 15-53 30a68 68 0 0 0-19 38c-2 18 3 33 18 44l1 4a2684 2684 0 0 0-13 134v33c0 8 6 17 14 19l19 3 39 4 105 10c5 0 22 1 35-2 8-2 15-6 22-9 10-6 10-14 10-14l2-148-1-24 2-3 9-6c17-14 20-38 12-57Z" fill="#0A0909"/>
    <path d="M353 135c-56-59-152-42-163-40-21 4-41 10-59 23a72 72 0 0 0-28 38l-1 9c67-81 245-49 259-15 4 12 5 24 2 36v3c2-4 4-8 4-12 2-16-3-30-14-42Zm-185-33Z" fill="#F8EECB"/>
    <path d="M190 111s-68 38-66 55c3 18 20 26 19 38-1 13-25 161-21 178 0 0-7 5-12-1-4-7 13-174 13-174s-12-14-15-23c-3-10-4-27 0-33 28-38 82-40 82-40Z" fill="#fff"/>
    <path d="M320 165c-1-7-2-17-10-25 0 0-176 163-189 184a257 257 0 0 0-3 52c-2 4-4 1-4 1 1 3 3 4 6 5l75 8h1c9 0 65 9 73 7 9-1 17 2 24 1 2 0 4-2 4-4 1-21 0-135-2-149l-1-22v-9c0-3 2-6 5-8 11-7 15-14 16-15v-1c8-11 5-25 5-25Z" fill="#F8EECB"/>
    <path d="M110 382ZM306 210ZM309 208ZM302 211ZM314 130ZM329 163c-1-7-2-11-5-18 0 0-6-14-24-26l-10-6c-7-5-16-7-24-10l-17-4a166 166 0 0 0-65 0l-17 4h-2a171 171 0 0 0-18 8l-16 10c-8 6-14 14-18 21h-1c-6 10-9 19-9 19-2 6-1 12 0 18 2 11 8 19 17 25l-2 22c0 9-9 80-9 96l-1 24v24s0 15 7 16l27 3a788 788 0 0 1 77 8s61 11 80 7c0 0 1 1 1-8l3-128c0-11-1-37-3-49 0-8 5-10 6-11 17-12 19-20 20-21 3-8 3-16 3-24Zm-9 11c0 17-22 34-22 34-2 2-4 3-4 6v9l1 22c3 13-2 138-1 151-16 1-56 2-80-5l-40-4-21-2-14-2-19-1c-8-1-8-11-8-11-1-9 0-17 1-26l1-24 8-92 3-22c1-3 0-4-2-6-10-8-15-18-15-32 1-10 5-19 10-27 12-15 27-24 44-30a159 159 0 0 1 87-6c1 0 16 3 41 16 9 4 16 12 22 21s9 20 8 31Z" fill="#D57929"/>
    <path d="M264 227c-3 2-5 7-2 11 2 4 1 9-2 12-21 20-126 88-140 78l13-113c0-6 1-12-3-18l-7-9c-9-11-7-23-2-33 4-8 11-15 18-21a118 118 0 0 1 37-20l20-4a166 166 0 0 1 47-2l13 2 30 9 4 3c9 4 16 12 22 21 0 11 2 25-8 25-18 0-4 26-15 26-18-1-17 28-25 33Z" fill="#F6F7D9"/>
    <path d="M252 247c-1 1 5-10 8 0l-1 1-1-1c-1-3-4-2-6 0ZM181 365l-1-1 1 1Z" fill="#BBAB91"/>
    <path d="M209 194c-3 10 4 14 8 12 2 0 3 0 3 2 2 11 11 19 20 20 12 2 23-5 27-17 3-7 3-14 1-21-1-3 0-4 2-4l10-8c4 7-3 9-5 10-3 0-4 2-3 5v12c0 5-2 10-4 14-7 11-20 16-33 12-7-2-14-8-17-18-1-2-1-3-3-3-7 1-18-7-6-16ZM141 178c3 1 6 7 9 8 2 0 3 1 2 4-3 9-3 18 3 26 5 6 11 9 18 8 8-1 13-7 15-15 0-2-1-1 1-3 7-4 6-12 6-12s6 1 5 10c0 2-2 3-4 5l-4 1c-2 0-2 2-3 4-3 7-9 13-17 13-9 1-15-3-20-10-4-5-5-11-5-16 1-3 1-7 3-10 0-2 0-3-5-4-2-1-8-2-4-9ZM176 132l-4-1c0-2 1-3 2-3 2-2 4-3 7-3 1 0 2 0 3 2l-2 3-6 2ZM246 164l-2-2c0-3 4-7 6-7 2 1 2 1 2 3s-3 6-6 6ZM129 168l-2-2c0-2 3-5 4-5 2 0 2 1 2 2 0 2-3 5-4 5ZM152 156c-1 2-2 3-4 3-1 0-2-1-1-2 0-2 1-3 3-3l2 2ZM175 236c0 2-1 2-3 2l-2-2c0-1 1-2 3-2l2 2ZM292 143l-3 2c-1-1-3-1-2-2 0-2 1-2 2-2 2 0 2 0 3 2Z" fill="#B19B7B"/>
    <path d="m143 238 2 2-2 2-2-2 2-2Z" fill="#BBAB91"/>
    <path d="M175 269c-1 0-2 0-2-2l2-1 2 1c0 2-1 2-2 2ZM237 368l-1-2 2-1c1 0 2 0 1 1 0 2-1 2-2 2ZM157 309l-2-2 2-2c1 0 2 0 2 2l-2 2ZM163 326c-1 0-2 0-1-2l2-1c1 0 2 0 1 1 0 2-1 2-2 2ZM185 138l-2-1 2-2 2 1c0 2-1 2-2 2Z" fill="#B19B7B"/>
    <path d="m239 135 2 1-2 2-2-2 2-1ZM264 141c-1 0-2-1-1-2l1-1 2 2-2 1ZM180 165l-2 1-1-1 1-2 2 2ZM169 146l-1 2-2-1 2-2 1 1ZM230 150l-1 2-2-2 2-1 1 1Z" fill="#BBAB91"/>
    <path d="m207 148 1 2-1 1-2-1 2-2Z" fill="#B19B7B"/>
    <path d="m255 327 1 2-1 2-2-2 2-2ZM185 339l-2 2-1-2 2-1 1 1ZM242 307l-2 2-1-2 2-2 1 2Z" fill="#BBAB91"/>
    <path d="m223 341 1 2-1 1-2-2 2-1Z" fill="#B19B7B"/>
    <path d="m243 123-1 1-2-1 1-2 2 2ZM274 162l1 1-1 1-2-1 2-1ZM195 241l-1 1-2-1c0-1 1-2 2-1l1 1Z" fill="#BBAB91"/>
    <path d="M189 273v2l-3-1 1-1h2Z" fill="#B19B7B"/>
    <path d="m151 249-2 1-1-1 2-2 1 2ZM248 370l-2 2-1-2 1-1 2 1ZM152 333l-1 1-2-1 2-1 1 1ZM152 262l-2 2-1-2 1-1 2 1ZM168 347l-1 2-1-2 1-1 1 1ZM236 383l-1 1c-1 1-2 0-2-1l1-1c1-1 2 0 2 1ZM207 228l-2-2 1-1 2 1-1 2Z" fill="#BBAB91"/>
    <path d="M274 247c0-3 2-6 4-5 2 0 3 2 3 4s-3 5-5 5c-2-1-3-2-2-4ZM280 320c0-3 2-6 4-5 2 0 3 2 3 4s-3 5-5 5c-2-1-3-2-2-4ZM281 383c0-3 2-6 4-6s3 2 3 4-3 5-5 5-3-1-2-3ZM194 326c0-4 2-6 4-6s3 2 3 4-3 5-5 5-3-2-2-3ZM197 358c0-3 2-5 4-5 3 0 3 2 4 4 0 2-4 5-5 5-2-1-3-2-3-4ZM243 363c0-3 2-6 4-6 2 1 3 3 3 5s-3 5-5 5c-2-1-3-2-2-4ZM241 277c-2 0-3 0-3-2s1-4 4-4c2 0 3 1 3 3 0 3-2 3-4 3ZM269 270c2 0 3 0 3 2s-2 2-3 3c-2 0-2-1-2-3l2-2ZM304 181c1 0 2 1 2 3 0 1 0 2-2 2l-2-2c-1-2 0-2 2-3ZM285 217l2 2c0 1-1 2-3 2l-1-2c0-1 0-2 2-2ZM272 257l-1 2c-2 0-2-1-2-2l2-1 1 1ZM287 329l-1 1-2-1 2-2 1 2ZM304 161l-2-1 1-2 2 1-1 2ZM285 201l2 1-1 2-2-1 1-2ZM275 328l1 1-1 2-1-1 1-2Z" fill="#B19B7B"/>
    <path d="M171 364h-1 1Z" fill="#BBAB91"/>
    <path d="M138 355c0-3 2-5 4-5 3 0 6 4 6 7-1 2-1 4-4 4s-6-3-6-6ZM170 372l-2 2-2-1c0-2 1-2 2-3l2 2ZM185 377l-1 1-2-2c0-1 1-2 2-1l1 2ZM129 344l-2-1 2-2 1 2-1 1Z" fill="#B19B7B"/>
    <path d="M306 210ZM302 211ZM323 196ZM361 150l-1-2c-3 0-4-2-6-3l-9-5-11-2c-4 0-7 4-7 9l2 10c5 35-9 42-27 54l-2 2c-1 3 2 30 2 41l1 4-4 136-10 2-40-3-91-8 71 11h3l17 4 22 2 4 1c22 5 51-4 63-15a21 21 0 0 0 5-6v-2c0-19 3-137 2-147l-1-20-26-3c-6 1-9 6-9 12l2 38c0 4 0 45-2 81l-4 52a488 488 0 0 1-2-2l4-93a1615 1615 0 0 0 0-80c0-4 2-7 5-9 13-6 21-16 26-30v4c2-1 4-4 6-2 4 2 2 5 2 8 3-2 3-6 6-8v4c2-2 4-3 6-1 3 2 2 4 2 7l-1 3c2-2 4-3 4-5v-3c3-12 3-24-2-36Zm-9 29h1-1ZM309 208ZM109 321ZM341 135h2l1-1c-2-3-5-5-8-5h-1v2l6 4ZM319 126l2-1-1-1-4-3-2 1c1 3 3 3 5 4Z" fill="#7F280A"/>
    <path d="m314 111-6 2c-3-2-3-2-4 0-2 1 1 5-3 5 6 3 5 5 4 5l-15-10c-7-5-16-7-24-10l-10-2c14 0 18 3 22 5 3 1 5 2 7 1-2-4-17-8-22-9l-27-3s11-1 30 1c5 1 20 3 43 12l5 3Z" fill="#F3B963"/>
    <path d="M132 121Z" fill="#E18A3B"/>
    <path d="M306 123Z" fill="#F3B963"/>
    <path d="m314 111-6 2v1-1c-3-2-3-2-4 0-2 1 1 5-3 5 2 2 4 2 5 5h-1l9 8c5 5 8 10 10 17l5 15c0 8 0 16-3 24l-1 2c-4 9-21 20-21 20 34-16 27-41 25-52l-2-10c0-5 3-9 7-9l10 2 3 1 7 4c2 1 3 3 6 3-2-4-19-24-46-37Zm5 15c-2-1-4-1-5-4l2-1 5 4-2 1Zm16 5v-2h1c3 0 6 2 8 5l-1 1h-2l-6-4Z" fill="#E18A3B"/>
    <path d="M320 174v-10c0-8-6-20-8-21 10 26 1 49-13 60l-7 7-1 8c-1 15 3 178 3 178l3-147 1-35c1-4 1-6 6-9 10-6 16-16 16-31Z" fill="#BBAB91"/>
    <path d="M206 201c0-3 1-5 3-7 0 2-1 4 2 5l5-1 31-15 10-5 7-3c4-1 9-2 13 0l3 3c2 3 0 6-3 6l-7 2c-2 0-3 1-2 4 2 7 2 14-1 21-4 12-15 19-27 17-9-1-18-9-20-20 0-2-1-2-3-2-3 1-7 1-9-1l-2-4ZM189 199l3 1c1-1 3-2 3-6l3 5s2 9-7 8c-2 0-3 0-3 2-2 8-7 14-15 15-7 1-13-2-18-8-6-8-6-17-3-26 1-3 0-4-2-4l-8-2-2-4c1-2 2-4 5-5h5l5 2 33 22h1Z" fill="#0A0909"/>
    <path clip-rule="evenodd" d="M230 205a6 6 0 1 0 12 0 6 6 0 0 0-12 0Z" fill="#110C4F" fill-rule="evenodd"/>
    <path clip-rule="evenodd" d="M234 204v-1c1 0 1 0 0 0v-1h-1v1l1 1Z" fill="#FAFAFA" fill-rule="evenodd"/>
    <path clip-rule="evenodd" d="M241 203h-3l-1 1h-1v1l-1 1h-2l-1-1v2l2 1h1l2-1 1-1 1-1 1-1a4 4 0 0 1 0-1h1Z" fill="#EA796B" fill-rule="evenodd"/>
    <path clip-rule="evenodd" d="M241 203a3 3 0 0 0-3-1h-1l-1 1-1 1-2 1h-1a3 3 0 0 0 0 2 2 2 0 0 0 1 0h2l1-1a6 6 0 0 0 1-1l1-1v-1h3Z" fill="#FAFAFA" fill-rule="evenodd"/>
    <path clip-rule="evenodd" d="m238 207 1 1 1-1h-2Z" fill="#EA796B" fill-rule="evenodd"/>
    <path clip-rule="evenodd" d="M169 205a6 6 0 1 0 12 0 6 6 0 0 0-12 0Z" fill="#110C4F" fill-rule="evenodd"/>
    <path clip-rule="evenodd" d="M173 204v-2h-1v1l1 1Z" fill="#FAFAFA" fill-rule="evenodd"/>
    <path clip-rule="evenodd" d="M180 203h-2l-2 1-1 1-1 1h-2l-2-1 1 2 2 1h1l2-1 1-1 1-1 1-1a4 4 0 0 1 0-1h1Z" fill="#EA796B" fill-rule="evenodd"/>
    <path clip-rule="evenodd" d="M180 203a3 3 0 0 0-3-1h-1a4 4 0 0 0-1 1h-1v1l-2 2-2-1a3 3 0 0 0 1 2 3 3 0 0 0 2 0h1l1-1a6 6 0 0 0 1-1l1-1 1-1h2Z" fill="#FAFAFA" fill-rule="evenodd"/>
    <path clip-rule="evenodd" d="m177 207 1 1 1-1h-2Z" fill="#EA796B" fill-rule="evenodd"/>
    <path d="M199 265c-5-1-18-3-21-8 18 3 36 2 53-4 6-2 11-5 16-9 3-3 3-3 0-5l-2-1c8-3 15 2 15 9h-1c-1 1-1-3-3-3l-3 1c-10 15-34 21-54 20Z" fill="#0A0909"/>
    <path d="M111 243s-13 5-8 21c0 0-4 7-1 12 0 0-8 2-7 17 0 0 1 7 10 15a282 282 0 0 0 33 25c8 7 27 26 51 36 0 0 26 15 63 24 37 8 46 11 59 0 0 0 30 10 54 1 0 0-16-9-16-16l1-2h5c2 2 11 12 17 10 0 0-4-1-4-7 0 0 39 18 66-22 0 0-49 7-71-40 0 0 16 7 27 4 10-3 22-17 22-17h-9s3-8 21-3c0 0 0-8-21-9l-12 4c-2 0-7 1-7-5 0 0 20 1 19-20 0 0-9 4-16 2s-18-1-21-1h-1l-6-6s6-13-10-24l-1-1-3 2v3c0 4-3 9-7 10-14 7-51 23-97 29 0 0-71 10-105-12l-7-4c-6-3-17-11-13-26h-5Z" fill="#0A0909"/>
    <path d="M382 277c-7-4-12-2-13 0l1 2h1c1-1 2-2 11 0l4 2c11 2 12-5 12-5s-9 5-16 1Z" fill="#fff"/>
    <path d="m387 282-7-1c-6-4-9-3-11-2l1 1c2 0 4 3 11 5 8 1 14-5 14-5s-2 2-8 2Z" fill="#1C303A"/>
    <path d="m381 278-8-2c-2 0-3 0-4 2v1c4-2 10 2 14 3 5 1 11 0 12-2 3-2 3-4 3-4s-8 8-17 2Z" fill="#515D6E"/>
    <path d="M107 269s10 21 18 29c0 0-24-14-18-29Z" fill="#fff"/>
    <path d="M104 280s2 7 7 15c5 9 12 19 16 23 0 0-40-22-23-38Z" fill="#192433"/>
    <path d="M104 280s-1 7 1 10l8 13s-6-3-10-9l2 6s-5-3-5-12l1-5 3-3Z" fill="#fff"/>
    <path d="M351 254s2 17-3 20c0 0 4-12-11-3-14 8-57 39-102 44-42 4-85-2-115-36l-9-12 1 1 2-1 2 2 10 5s28 24 75 22c60-3 135-25 150-42ZM306 331ZM306 331Z" fill="#192731"/>
    <path d="M350 364c-7-4-40-16-40-16 19-1 27-7 27-7-25 4-54-2-54-2 13-1 19-5 22-7l-4 1c-5-3 7-7 7-7-11-1-29 7-29 7-26 14-73 8-73 8 31 2 67-10 96-26 30-16 53-37 54-26v6s-9 7-8 15 8 25 26 35c0 0-18-20-21-34 0 0-2-6 3-12 7-8 6-22 6-22l-6-5c0 10-26 25-40 32-74 34-107 26-107 26 16 1 44-10 44-10-60 15-102-12-102-12-29-13-44-39-44-39l-1 6a147 147 0 0 0 111 83c33 2 59 13 59 13 12 2 41 19 41 19 4-4 19-1 19-1l-30-18c9 4 38 10 38 10-9-7-7-12-7-12s9-3 17 1 24 3 24 3-21-4-28-9Z" fill="#192731"/>
    <path d="M129 310c7 8 16 11 24 15 25 16 47 21 75 29-8 2-22 1-31 0 9 3 23 5 33 5 11 1 42 10 48 13 0-3-3-6-6-7l20 6c-6-4-16-7-23-11 12 1 25 1 36-2-5-6-12-10-20-11 4-1 8 0 11 2-1-3-4-3-6-4-28-5-58-1-86-3 17-3 37 0 52-9 1-1 5-3 4-4-20 0-34 6-48 1 12-1 29-5 41-10a162 162 0 0 1-50 8c-27-2-52-18-75-33 11 11 25 19 39 25-9-1-17-6-25-12-11-8-23-17-28-30-3 0-4 3-4 6l2 7c5 8 16 19 17 19Z" fill="#45545E"/>
    <path d="m307 357 3-1 5 1c2 1 3 3 2 5-3 0-10-2-10-5Z" fill="#040404"/>
    <path d="M349 248s5 6 2 19c0 0 7-8-2-19ZM353 310l3-2s3 46 67 54c0 0-25 4-49-17a66 66 0 0 1-21-35ZM356 271s11 12 1 27c0 0 7-5 7-14s-8-13-8-13Z" fill="#fff"/>
    <path d="M289 288s-38 19-73 22-64-7-64-7-25-14-31-23-6-6-7-13c0 0 14 19 40 29l21-3 53 2 37-6 24-1Z" fill="#3E4E5B"/>
    <path d="M135 283v-1a193 193 0 0 0 63 15l-9 1-30-2c-7-2-22-9-24-13Z" fill="#7F94A4"/>
    <path d="M334 266s-18 18-45 22-46 13-74 9c0 0 30 1 51-7l30-10c16-5 31-10 38-14Z" fill="#4E5E6B"/>
    <path d="M110 251s-1 23 39 35c0 0 45 21 146-5 0 0-58 23-118 15-14-2-28-7-41-12a98 98 0 0 0 21 12h-1c-5 0-10-2-14-4-9-5-25-15-28-23 0 0-1 2 1 5 0 0-13-14-5-23Z" fill="#fff"/>
    <path d="M234 331s25-1 52-11 38-20 38-20-62 26-86 30l-4 1Z" fill="#45545E"/>
    <path d="M226 330s35-5 63-16c-1 0-28 13-61 18 0 0-7 1-15-2h13Z" fill="#87909F"/>
  </g>
  <defs>
    <radialGradient cx="0" cy="0" gradientTransform="translate(256 256) scale(315.363)" gradientUnits="userSpaceOnUse" id="b" r="1">
      <stop stop-color="#517A87"/>
      <stop offset="1" stop-color="#28475A"/>
    </radialGradient>
    <clipPath id="a">
      <rect fill="#fff" height="512" rx="256" width="512"/>
    </clipPath>
  </defs>
</svg>