<?xml version="1.0" encoding="UTF-8"?>
<svg xmlns="http://www.w3.org/2000/svg" fill="none" viewBox="0 0 600 600"><script xmlns=""/><script xmlns="" id="argent-x-extension" data-extension-id="{51e0c76c-7dbc-41ba-a45d-c579be84301b}"/>
  <path d="M0 0h600v600H0z" fill="#fff"/>
  <path d="M273.621 234.118h-8.778v8.779h-8.779v26.423h8.779v17.556h8.866v-8.778h8.778v-8.778h8.779v-17.645h-8.779V225.34h-8.866v8.778Z" fill="#000"/>
  <path d="M203.394 269.32v-8.866h26.423v8.778h17.557v17.644h-8.779v35.026h8.779v8.778h8.778v8.779h8.778v8.778h8.779v8.778h17.557v8.779h43.803v-8.779h8.779v-8.778h8.778v-8.778h8.779v-26.335h8.778v-8.691h-8.778v-8.866h43.979v8.866h-8.778v8.778h-8.779v17.557h-8.778v17.557h-8.778v8.778h-8.779v8.778h-8.778v8.779h-8.778v8.778h-70.315v-8.778h-17.557v-8.779h-8.778v-8.778h-8.778v-8.778h-8.779v-17.557h-8.778v-43.892h-8.778V269.32h-8.779Z" fill="#000"/>
  <path d="M326.291 242.897h8.778v-8.779h8.867v26.336h8.778v8.866h-8.778v17.556h-8.779v8.779h-8.866v-8.779h-8.778v-35.201h8.778v-8.778Z" fill="#000"/>
  <path clip-rule="evenodd" d="M273.621 120v8.778h-35.113v8.779h-17.557v8.778h-8.778v8.778h-17.557v8.779h-8.778v8.778h-8.779v8.778h-8.778v8.779h-8.778v17.556h-8.779v17.557h-8.778v8.778h-8.778v35.114h-8.779v79.093h8.779v35.113h8.778v17.557h8.778v8.778h8.779v8.779h8.778v8.778h8.778v8.778h8.779v8.779h8.778v8.778h8.778v8.778h35.114v8.779h35.113V480h35.201v-8.778h35.114v-8.779h17.556v-8.778h17.557v-8.778h8.778v-8.779h17.557v-8.778h8.778v-8.778h8.779v-8.779h8.778v-8.778h8.778v-17.557h8.779v-17.557h8.778v-26.335h8.778V321.99h8.779v-87.872h-8.779v-26.335h-8.778v-17.556h-8.778v-8.779h-8.779v-8.778h-8.778v-8.778h-8.778v-8.779h-8.779v-8.778h-8.778v-8.778h-8.778v-8.779h-35.114V120h-87.871ZM212.26 392.129h-8.778v-8.779h-8.778v-17.556h-8.779v-17.557h-8.778V269.32h8.778v-26.335h8.779v-17.557h8.778v-8.778h8.778v-8.779h8.779v-8.778h8.778v-8.778h8.778v-8.779h17.557v-8.778h26.335v-8.778h61.361v8.778h26.335v8.778h8.778v8.779h8.779v8.778h8.778v8.778h8.778v8.779h8.779v17.556h8.778v26.335h8.778v43.804h-8.778v26.335h-8.778v26.335h-8.779v17.557h-8.778v8.778h-8.778v8.779h-8.779v8.778h-17.556v8.778h-17.557v8.779h-26.335v8.778H264.93v-8.778h-26.335v-8.779h-17.556v-8.778h-8.779v-8.778Z" fill="#000" fill-rule="evenodd"/>
</svg>