<svg width="171" height="91" viewBox="0 0 171 91" fill="none" xmlns="http://www.w3.org/2000/svg">
<path opacity="0.53" d="M108 66.7333C109.657 66.7333 111 68.0765 111 69.7333L111 87C111 89.2091 112.791 91 115 91L124.6 91C125.657 91 126.671 90.5816 127.42 89.8362L169.148 48.3362C170.721 46.7723 170.721 44.2277 169.148 42.6638L127.42 1.16383C126.671 0.418421 125.657 -1.49844e-06 124.6 -1.48583e-06L115 -1.37136e-06C112.791 -1.34502e-06 111 1.79086 111 4L111 21.2667C111 22.9235 109.657 24.2667 108 24.2667L3 24.2667C1.34314 24.2667 3.16897e-07 25.6098 3.50845e-07 27.2667L1.09803e-06 63.7333C1.13198e-06 65.3902 1.34315 66.7333 3 66.7333L108 66.7333Z" fill="url(#paint0_linear_1316_8599)"/>
<defs>
<linearGradient id="paint0_linear_1316_8599" x1="5.42582e-07" y1="45.5" x2="172" y2="45.5" gradientUnits="userSpaceOnUse">
<stop stop-color="#5A843B" stop-opacity="0"/>
<stop offset="0.185" stop-color="#7DB751" stop-opacity="0"/>
<stop offset="1" stop-color="#A0EA68"/>
</linearGradient>
</defs>
</svg>
