<svg width="171" height="94" viewBox="0 0 171 94" fill="none" xmlns="http://www.w3.org/2000/svg">
<path opacity="0.53" d="M4.86446 0.416443C3.67064 0.78944 2.63417 1.54602 1.91675 2.56815C1.19933 3.59029 0.841297 4.8205 0.89851 6.06686C0.898509 37.5397 72.2982 65.774 113.997 70.1813L113.997 87.6411C114.004 88.7056 114.313 89.7464 114.887 90.6437C115.461 91.541 116.278 92.2583 117.243 92.713C118.208 93.1677 119.282 93.3412 120.342 93.2137C121.401 93.0861 122.403 92.6626 123.232 91.992L166.461 56.8463C167.764 55.7866 168.815 54.4508 169.536 52.936C170.257 51.4211 170.632 49.7652 170.632 48.0882C170.632 46.4112 170.257 44.7552 169.536 43.2404C168.815 41.7256 167.764 40.3898 166.461 39.33L123.232 4.1844C122.403 3.51376 121.401 3.09027 120.342 2.9627C119.282 2.83513 118.208 3.00868 117.243 3.46335C116.278 3.91802 115.461 4.63533 114.887 5.53264C114.313 6.42995 114.004 7.47078 113.997 8.53523L113.997 24.6954C86.009 20.1751 11.4366 3.12864 11.21 2.84612C10.5581 1.81117 9.58724 1.01493 8.44314 0.576859C7.29904 0.138786 6.04335 0.0824997 4.86446 0.416443Z" fill="url(#paint0_linear_1625_8758)"/>
<defs>
<linearGradient id="paint0_linear_1625_8758" x1="0.892579" y1="46.7279" x2="170.632" y2="46.7279" gradientUnits="userSpaceOnUse">
<stop stop-color="#5A843B" stop-opacity="0"/>
<stop offset="0.185" stop-color="#7DB751" stop-opacity="0"/>
<stop offset="1" stop-color="#A0EA68"/>
</linearGradient>
</defs>
</svg>
