<?xml version="1.0" encoding="UTF-8"?>
<svg xmlns="http://www.w3.org/2000/svg" fill="none" height="44" width="44"><script xmlns=""/><script xmlns="" id="argent-x-extension" data-extension-id="{51e0c76c-7dbc-41ba-a45d-c579be84301b}"/>
  <circle cx="22" cy="22" fill="#000" r="22"/>
  <g clip-path="url(#a)" fill="#fff">
    <path d="M26.544 12.757a8.77 8.77 0 0 0-2.012-.879c-.09-.018-.162-.054-.252-.072a8.727 8.727 0 0 0-2.389-.323c-.736 0-1.437.09-2.138.252-.125.036-.251.054-.36.09a9.224 9.224 0 0 0-1.94.807 9.195 9.195 0 0 0-4.76 8.057 9.196 9.196 0 0 0 4.886 8.128c.63.341 1.312.61 2.03.79v-.395l.018-1.453a6.967 6.967 0 0 1-2.03-1.023 7.398 7.398 0 0 1 .108-12.13 6.978 6.978 0 0 1 2.048-.987 7.094 7.094 0 0 1 2.138-.323 7.47 7.47 0 0 1 4.402 1.453 7.413 7.413 0 0 1 3 5.958 7.43 7.43 0 0 1-3.09 6.029c-.611.448-1.312.79-2.048 1.04l-.018 1.58v.287a9.127 9.127 0 0 0 2.048-.79c2.91-1.543 4.904-4.612 4.904-8.129 0-3.409-1.832-6.37-4.545-7.967Z"/>
    <path d="M36.173 28.459c-.053-.144-.143-.198-.251-.198-.126 0-.252.126-.377.395-.126.27-.198.467-.234.61a9.352 9.352 0 0 1-.629 1.364c-.18.305-.449.646-.826 1.023-.18.197-.467.395-.844.574-.378.18-.809.287-1.312.27l-3.413-.037c-.899 0-1.473-.18-1.725-.52-.252-.341-.377-.861-.377-1.561v-.933l.018-1.867v-.233l.09-11.717v-1.113c0-.358.071-.646.215-.86l.018-.019c.126-.18.288-.305.503-.395a8.72 8.72 0 0 1 1.743-.538c.305-.072.539-.161.682-.27a.577.577 0 0 0 .234-.394c0-.143-.072-.233-.216-.287a1.676 1.676 0 0 0-.575-.09c-.377 0-.718 0-1.023.018l.035-3.535-1.329-.018-.018 1.992c0 .844-.844 1.508-1.886 1.508-1.042 0-1.887-.7-1.869-1.526V8.11l-1.167-.017-.018 1.991c0 .844-.863 1.508-1.887 1.508-1.042-.018-1.868-.7-1.868-1.526l.036-2.01h-1.33l-.036 3.536h-.09a78.811 78.811 0 0 0-1.275-.054c-.234 0-.431.018-.575.072-.144.053-.215.143-.215.287 0 .161.071.287.215.412.144.108.377.216.683.27a9.91 9.91 0 0 1 1.742.574c.198.09.342.215.45.359.053.071.09.143.125.215.09.197.126.43.126.718l-.018 1.022v.36l-.09 11.214v.574l-.018 1.615v1.095c0 .7-.144 1.22-.395 1.543-.252.323-.844.503-1.743.485l-3.413-.036c-.503 0-.934-.108-1.311-.287a3.42 3.42 0 0 1-.845-.593 5.883 5.883 0 0 1-.808-1.04 12.298 12.298 0 0 1-.611-1.364 4.217 4.217 0 0 0-.234-.61c-.125-.27-.233-.413-.359-.413-.108 0-.198.072-.252.198-.053.125-.09.269-.09.394 0 .018 0 .054.019.09.018.036.018.072.018.09.125.592.233 1.112.323 1.597.09.466.18.915.233 1.346.072.43.108.879.144 1.345.018.162.054.288.09.413.054.108.144.162.287.162.917 0 1.797 0 2.641-.018.845-.018 1.653-.018 2.444-.036.79 0 1.527-.018 2.245-.036.719-.018 1.42-.018 2.12-.018.431 0 .934.018 1.491.036v-.018l.018-3.087v-.394l.018-1.454v-.43l.126-13.476v-.844h4.51v.772l-.108 13.727v.27l-.018 1.578v.287l-.018 3.123v.017c.557-.017 1.042-.017 1.49-.017.701 0 1.402.017 2.12.053.72.036 1.474.054 2.246.072.773.018 1.6.036 2.444.072.844.036 1.724.054 2.64.054.144 0 .234-.054.288-.162.054-.107.072-.25.108-.394a15.3 15.3 0 0 1 .162-1.346c.071-.43.161-.88.251-1.346.108-.466.216-.987.36-1.58 0-.017 0-.053.017-.089 0-.036.018-.054.018-.09a1.696 1.696 0 0 0-.09-.412ZM24.28 12.776v-.27h.09v.27h-.09Z"/>
  </g>
  <defs>
    <clipPath id="a">
      <path d="M7 8h30v26H7z" fill="#fff"/>
    </clipPath>
  </defs>
</svg>